<?xml version="1.0" encoding="utf-8"?>
<!-- Generator: Adobe Illustrator 18.0.0, SVG Export Plug-In . SVG Version: 6.00 Build 0)  -->
<!DOCTYPE svg PUBLIC "-//W3C//DTD SVG 1.1//EN" "http://www.w3.org/Graphics/SVG/1.1/DTD/svg11.dtd">
<svg version="1.1" id="Layer_1" xmlns="http://www.w3.org/2000/svg" xmlns:xlink="http://www.w3.org/1999/xlink" x="0px" y="0px"
	 width="800px" height="600px" viewBox="0 0 800 600" enable-background="new 0 0 800 600" xml:space="preserve">
<g>
	<rect fill="#030032" width="800" height="600"/>
	<g>
		<path fill="none" stroke="#73CDDA" stroke-width="2" stroke-miterlimit="10" d="M418.2,312.3c-1.6-5.4,13.4-7.8,8-15.1
			s-9.3,4.3-14.7,4c-5.4-0.3-9-15.3-17-8.6c-8,6.7,3.8,11.7,2.9,17.9c-0.8,6.2-14.4,9.2-8.2,16.7c6.1,7.4,9.9,3.5,15.8-4.2
			c6-7.7,14.4,9.5,19.3,3.8C429.3,321.2,419.9,317.9,418.2,312.3z"/>
		<path fill="none" stroke="#70C3D3" stroke-width="1.9677" stroke-miterlimit="10" d="M386.7,290.2c7-12,19.1,11.1,21.8,4
			c1.2-3.3,8-1.9,12-2.8c4.4-1,10.6-6,15.6-0.8c9.3,9.7-13.7,13.6-13.1,20.9c0.6,7.5,16.1,7,11.5,17.8c-6.8,16.3-19.3-10.4-27.8-3
			c-8.5,7.4-11.8,19.5-26.9,6.5c-11.5-9.9,7.8-11.8,11.7-19.1c1-1.8,1-3.7,0.4-5.8C390.4,302.6,381.8,298.4,386.7,290.2z"/>
		<path fill="none" stroke="#6CBBCD" stroke-width="1.9355" stroke-miterlimit="10" d="M378.8,287.6c6-17.5,26.7,14,26.5-0.5
			c-0.1-6.7,11.1-1.2,17.1-1.4c6.2-0.2,16.2-8.3,23.4-1.8c13.3,12.1-17.7,17.6-18.1,26.8c-0.4,9.4,21.6,5.4,17,21
			c-8.1,27.3-25.2-9.2-36.2-2.2c-11,7-13.5,27.1-37.9,8.7c-16.6-12.5,8.1-13.1,15.3-21.5c1.7-2,2.4-4.3,2.1-6.8
			C387.2,303.6,375,299.1,378.8,287.6z"/>
		<path fill="none" stroke="#69B4C8" stroke-width="1.9032" stroke-miterlimit="10" d="M371,285.1c4.8-23,34.3,16.8,31.3-5.1
			c-1.4-10.1,14.3-1.1,22.3,0c8,1.1,21.9-10.6,31.2-2.8c17.2,14.5-21.8,21.5-23.2,32.7c-1.4,11.3,27.3,3.8,22.4,24.2
			c-9.1,38.3-31.2-8.1-44.7-1.4c-13.5,6.7-15.2,34.6-49,11c-21.7-15.2,8.4-14.4,18.8-23.9c2.4-2.2,3.8-4.8,3.8-7.9
			C383.9,304.6,368,299.7,371,285.1z"/>
		<path fill="none" stroke="#66ADC3" stroke-width="1.871" stroke-miterlimit="10" d="M363.2,282.6c3.5-28.6,41.9,19.6,36-9.7
			c-2.7-13.5,17.5-0.7,27.4,1.5c9.9,2.2,27.5-12.9,39-3.7c21.1,16.9-25.9,25.5-28.2,38.6c-2.3,13.2,33,2.2,27.8,27.3
			c-10.1,49.3-37.1-6.9-53.2-0.6c-16.1,6.3-16.9,42.1-60,13.2c-26.7-17.9,8.7-15.8,22.3-26.2c3.1-2.4,5.1-5.3,5.5-9
			C380.6,305.7,361,300.3,363.2,282.6z"/>
		<path fill="none" stroke="#62A7BE" stroke-width="1.8387" stroke-miterlimit="10" d="M355.3,280.1c2.2-34.1,49.4,22.4,40.8-14.3
			c-3.9-16.9,20.7-0.3,32.5,2.9c11.7,3.2,33.1-15.2,46.8-4.7c25.1,19.3-29.9,29.5-33.3,44.5c-3.3,15.1,38.7,0.6,33.3,30.5
			c-10.9,60.3-43.1-5.7-61.7,0.2s-18.5,49.5-71,15.5c-31.7-20.6,8.9-17.1,25.8-28.6c3.9-2.6,6.5-5.9,7.2-10.1
			C377.3,306.7,354,300.9,355.3,280.1z"/>
		<path fill="none" stroke="#60A1BA" stroke-width="1.8065" stroke-miterlimit="10" d="M347.5,277.6c0.9-39.7,57,25.2,45.5-18.9
			c-5.2-20.3,23.9,0,37.6,4.3c13.6,4.3,38.8-17.6,54.6-5.7c29,21.7-34,33.5-38.3,50.4c-4.3,17,44.4-1,38.7,33.7
			c-11.8,71.3-49.1-4.6-70.2,1s-20.2,56.9-82.1,17.7c-36.8-23.3,9.2-18.5,29.4-31c4.6-2.8,7.8-6.4,8.9-11.2
			C374,307.7,346.9,301.6,347.5,277.6z"/>
		<path fill="none" stroke="#5D9BB5" stroke-width="1.7742" stroke-miterlimit="10" d="M339.6,275.1c-0.5-45.2,64.6,28.1,50.2-23.5
			c-6.5-23.7,27.1,0.4,42.7,5.8c15.4,5.3,44.4-19.9,62.4-6.7c32.9,24.2-38.1,37.4-43.3,56.3c-5.3,18.9,50.2-2.6,44.1,36.9
			c-12.6,82.3-55-3.4-78.7,1.8c-23.6,5.2-21.8,64.3-93.1,20c-41.8-26,9.4-19.8,32.9-33.4c5.3-3.1,9.2-7,10.6-12.2
			C370.6,308.8,339.9,302.2,339.6,275.1z"/>
		<path fill="none" stroke="#5A95B1" stroke-width="1.7419" stroke-miterlimit="10" d="M331.8,272.6c-1.8-50.7,72.1,30.9,55-28.1
			c-7.8-27.1,30.3,0.8,47.8,7.2c17.3,6.4,50.1-22.2,70.2-7.7c36.9,26.6-42.1,41.4-48.4,62.2c-6.2,20.8,55.9-4.3,49.5,40.1
			c-13.4,93.3-61-2.2-87.1,2.6s-23.5,71.7-104.1,22.2c-46.8-28.7,9.7-21.2,36.4-35.8c6-3.3,10.5-7.5,12.4-13.3
			C367.3,309.8,332.9,302.9,331.8,272.6z"/>
		<path fill="none" stroke="#578FAC" stroke-width="1.7097" stroke-miterlimit="10" d="M323.9,270.1c-3.2-56.2,79.7,33.7,59.7-32.6
			c-9.1-30.5,33.5,1.1,52.9,8.7c19.1,7.4,55.7-24.5,78-8.7c40.8,29-46.2,45.4-53.4,68c-7.2,22.7,61.6-5.9,55,43.2
			c-14.2,104.3-66.9-1.1-95.6,3.5c-28.7,4.5-25.1,79.1-115.2,24.5c-51.9-31.4,10-22.6,39.9-38.1c6.7-3.5,11.9-8.1,14.1-14.4
			C364,310.8,325.8,303.5,323.9,270.1z"/>
		<path fill="none" stroke="#5589A8" stroke-width="1.6774" stroke-miterlimit="10" d="M316.1,267.6c-4.5-61.7,87.2,36.5,64.5-37.2
			c-10.4-33.9,36.7,1.5,58,10.1c21,8.4,61.3-26.8,85.9-9.7c44.7,31.4-50.3,49.4-58.5,73.9c-8.2,24.6,67.4-7.5,60.4,46.4
			c-15,115.3-72.9,0.1-104.1,4.3c-31.2,4.2-26.7,86.5-126.2,26.7c-56.9-34.2,10.2-24,43.5-40.5c7.4-3.7,13.2-8.6,15.8-15.5
			C360.6,311.8,318.8,304.2,316.1,267.6z"/>
		<path fill="none" stroke="#5283A4" stroke-width="1.6452" stroke-miterlimit="10" d="M308.3,265.1c-5.9-67.2,94.8,39.3,69.2-41.8
			c-11.7-37.3,39.9,1.9,63.1,11.5c22.8,9.5,67-29.2,93.7-10.7c48.7,33.8-54.3,53.3-63.5,79.8c-9.2,26.6,73.1-9.1,65.8,49.6
			c-15.7,126.3-78.9,1.3-112.6,5.1s-28.4,93.9-137.3,29c-61.9-36.9,10.5-25.4,47-42.9c8.2-3.9,14.6-9.2,17.5-16.6
			C357.3,312.8,311.7,304.8,308.3,265.1z"/>
		<path fill="none" stroke="#4F7EA0" stroke-width="1.6129" stroke-miterlimit="10" d="M300.4,262.6c-7.2-72.7,102.4,42.1,74-46.4
			c-13-40.7,43.1,2.2,68.2,13c24.7,10.5,72.6-31.5,101.5-11.7c52.6,36.2-58.4,57.3-68.6,85.7c-10.2,28.5,78.9-10.8,71.3,52.8
			c-16.5,137.3-84.8,2.4-121.1,5.9c-36.3,3.5-30,101.3-148.3,31.2c-67-39.6,10.8-26.8,50.5-45.3c8.9-4.1,15.9-9.7,19.2-17.7
			C353.9,313.8,304.7,305.5,300.4,262.6z"/>
		<path fill="none" stroke="#4D789B" stroke-width="1.5806" stroke-miterlimit="10" d="M292.6,260.1c-8.6-78.2,109.9,44.9,78.7-51
			c-14.3-44.1,46.3,2.6,73.4,14.4c26.5,11.6,78.3-33.8,109.3-12.7c56.5,38.6-62.5,61.3-73.6,91.6c-11.1,30.4,84.6-12.4,76.7,56
			c-17.3,148.3-90.8,3.6-129.6,6.7s-31.6,108.7-159.3,33.5c-72-42.4,11-28.1,54-47.6c9.6-4.4,17.2-10.3,20.9-18.7
			C350.6,314.8,297.6,306.1,292.6,260.1z"/>
		<path fill="none" stroke="#4A7398" stroke-width="1.5484" stroke-miterlimit="10" d="M284.7,257.6c-9.9-83.8,117.5,47.8,83.5-55.6
			c-15.6-47.5,49.5,3,78.5,15.8c28.4,12.6,83.9-36.1,117.1-13.7c60.5,41-66.5,65.3-78.7,97.5c-12.1,32.3,90.4-14,82.1,59.1
			c-18,159.3-96.7,4.7-138,7.5c-41.3,2.8-33.2,116-170.4,35.7c-77-45.1,11.3-29.5,57.6-50c10.3-4.6,18.6-10.8,22.6-19.8
			C347.2,315.8,290.6,306.8,284.7,257.6z"/>
		<path fill="none" stroke="#486E94" stroke-width="1.5161" stroke-miterlimit="10" d="M276.9,255.1
			c-11.3-89.3,125.1,50.6,88.2-60.2c-16.9-50.9,52.7,3.3,83.6,17.3c30.3,13.7,89.6-38.4,124.9-14.6c64.4,43.4-70.6,69.2-83.7,103.4
			c-13.1,34.2,96.1-15.6,87.5,62.3c-18.8,170.2-102.7,5.9-146.5,8.3c-43.8,2.4-34.9,123.4-181.4,38c-82-47.8,11.6-30.9,61.1-52.4
			c11-4.8,19.9-11.4,24.3-20.9C343.9,316.8,283.5,307.4,276.9,255.1z"/>
		<path fill="none" stroke="#456990" stroke-width="1.4839" stroke-miterlimit="10" d="M269,252.6c-12.7-94.8,132.6,53.4,93-64.8
			c-18.2-54.3,55.9,3.7,88.7,18.7c32.1,14.7,95.2-40.8,132.7-15.6c68.3,45.9-74.7,73.2-88.8,109.2c-14.1,36.1,101.9-17.2,93,65.5
			c-19.6,181.2-108.6,7.1-155,9.1c-46.4,2.1-36.5,130.8-192.4,40.2c-87.1-50.5,11.8-32.3,64.6-54.8c11.8-5,21.2-11.9,26-22
			C340.5,317.8,276.5,308.1,269,252.6z"/>
		<path fill="none" stroke="#43648C" stroke-width="1.4516" stroke-miterlimit="10" d="M261.2,250.1c-14-100.3,140.2,56.2,97.7-69.3
			c-19.5-57.7,59.1,4,93.8,20.1c34,15.7,100.8-43.1,140.5-16.6c72.3,48.3-78.7,77.2-93.8,115.1c-15.1,38,107.7-18.9,98.4,68.7
			c-20.3,192.2-114.6,8.2-163.5,9.9c-48.9,1.7-38.1,138.2-203.5,42.5c-92.1-53.3,12.1-33.7,68.1-57.2c12.5-5.2,22.6-12.5,27.8-23.1
			C337.2,318.8,269.4,308.8,261.2,250.1z"/>
		<path fill="none" stroke="#406089" stroke-width="1.4194" stroke-miterlimit="10" d="M253.4,247.6
			c-15.4-105.7,147.7,59,102.4-73.9c-20.8-61.1,62.3,4.4,98.9,21.6c35.8,16.8,106.5-45.4,148.3-17.6c76.2,50.7-82.8,81.2-98.9,121
			c-16,39.9,113.4-20.5,103.8,71.9c-21.1,203.2-120.6,9.4-172,10.8S396.2,526.8,221.5,426c-97.1-56,12.4-35.1,71.7-59.5
			c13.2-5.4,23.9-13,29.5-24.2C333.8,319.8,262.4,309.4,253.4,247.6z"/>
		<path fill="none" stroke="#3E5B86" stroke-width="1.3871" stroke-miterlimit="10" d="M245.5,245
			c-16.8-111.2,155.3,61.8,107.2-78.5c-22.1-64.5,65.5,4.7,104,23c37.7,17.8,112.1-47.7,156.1-18.6C693,224,526,256.1,508.9,297.8
			c-17,41.8,119.2-22.1,109.2,75.1c-21.9,214.2-126.5,10.6-180.5,11.6s-41.4,152.9-225.6,47c-102.1-58.7,12.6-36.5,75.2-61.9
			c13.9-5.7,25.2-13.6,31.2-25.2C330.5,320.8,255.3,310.1,245.5,245z"/>
		<path fill="none" stroke="#3B5682" stroke-width="1.3548" stroke-miterlimit="10" d="M237.7,242.5
			c-18.1-116.7,162.9,64.7,111.9-83.1c-23.4-67.9,68.7,5.1,109.1,24.4c39.6,18.8,117.8-50,163.9-19.6c84.1,55.5-91,89.1-109,132.8
			c-18,43.7,124.9-23.8,114.7,78.2c-22.6,225.2-132.5,11.7-188.9,12.4c-56.5,0.6-43,160.3-236.6,49.3
			c-107.2-61.5,12.9-37.8,78.7-64.3c14.6-5.9,26.6-14.1,32.9-26.3C327.2,321.8,248.3,310.8,237.7,242.5z"/>
		<path fill="none" stroke="#39527F" stroke-width="1.3226" stroke-miterlimit="10" d="M229.8,240
			c-19.5-122.2,170.4,67.5,116.7-87.7c-24.7-71.3,71.9,5.4,114.2,25.9c41.4,19.9,123.4-52.4,171.7-20.6c88,57.9-95,93.1-114,138.7
			c-19,45.6,130.7-25.4,120.1,81.4c-23.4,236.2-138.4,12.9-197.4,13.2s-44.6,167.7-247.6,51.5c-112.2-64.2,13.2-39.2,82.3-66.7
			c15.3-6.1,27.9-14.7,34.6-27.4C323.8,322.8,241.2,311.4,229.8,240z"/>
		<path fill="none" stroke="#374D7C" stroke-width="1.2903" stroke-miterlimit="10" d="M222,237.5c-20.8-127.7,178,70.3,121.4-92.3
			c-26-74.7,75.1,5.8,119.4,27.3c43.3,20.9,129-54.7,179.5-21.6c91.9,60.3-99.1,97.1-119.1,144.6c-20,47.5,136.4-27,125.5,84.6
			c-24.1,247.2-144.4,14.1-205.9,14c-61.5-0.1-46.1,174.7-258.7,53.8c-117.1-67.1,13.4-40.8,85.8-69.1c16-6.3,29.3-15.3,36.3-28.5
			C320.5,323.8,234.2,312.1,222,237.5z"/>
		<path fill="none" stroke="#354878" stroke-width="1.2581" stroke-miterlimit="10" d="M214.1,235
			c-22.2-133.2,185.6,73.1,126.2-96.9c-27.3-78.1,78.3,6.2,124.5,28.7c45.1,22,134.7-57,187.3-22.6C748,207.1,549,245.4,528,294.8
			c-20.9,49.5,142.2-28.6,131,87.8c-24.9,258.2-150.4,15.2-214.4,14.8c-64-0.4-47.7,182.1-269.7,56c-122.2-69.8,13.7-42.1,89.3-71.4
			c16.8-6.6,30.6-15.8,38-29.6C317.1,324.8,227.1,312.7,214.1,235z"/>
		<path fill="none" stroke="#334475" stroke-width="1.2258" stroke-miterlimit="10" d="M206.3,232.5
			c-23.8-138.7,193.1,75.9,130.9-101.4c-28.6-81.5,81.5,6.5,129.6,30.2c47,23,140.3-59.3,195.1-23.6
			c99.8,65.1-107.2,105-129.2,156.3c-21.9,51.4,147.9-30.3,136.4,91c-25.6,269.1-156.3,16.4-222.9,15.6s-49.4,189.5-280.7,58.3
			c-127.2-72.6,13.9-43.5,92.8-73.8c17.5-6.8,31.9-16.4,39.7-30.6C313.8,325.8,219.9,313.4,206.3,232.5z"/>
		<path fill="none" stroke="#313F72" stroke-width="1.1935" stroke-miterlimit="10" d="M198.5,230c-25.2-144.2,200.7,78.7,135.7-106
			c-29.9-84.9,84.7,6.9,134.7,31.6c48.9,24.1,146-61.6,202.9-24.6c103.8,67.6-111.3,109-134.2,162.2
			c-22.9,53.3,153.9-31.9,141.8,94.1C653.5,667.6,517.1,405,448,403.8c-69.1-1.1-51,196.9-291.8,60.5
			c-132.2-75.3,14.2-44.9,96.4-76.2c18.2-7,33.3-16.9,41.5-31.7C310.4,326.8,212.9,314.1,198.5,230z"/>
		<path fill="none" stroke="#2F3B6F" stroke-width="1.1613" stroke-miterlimit="10" d="M190.6,227.5C164.1,77.8,398.9,309,331,116.9
			c-31.2-88.3,87.9,7.3,139.8,33c50.7,25.1,151.6-64,210.7-25.5c107.7,70-115.4,113-139.2,168.1C518.4,347.7,702,259,689.6,389.8
			c-26.7,291.2-168.2,18.7-239.9,17.2s-52.7,204.3-302.8,62.8c-137.3-78,14.5-46.2,99.9-78.6c18.9-7.2,34.6-17.5,43.2-32.8
			C307.1,327.8,205.8,314.8,190.6,227.5z"/>
		<path fill="none" stroke="#2D366C" stroke-width="1.129" stroke-miterlimit="10" d="M182.8,225
			c-27.8-155.2,215.8,84.4,145.2-115.2c-32.5-91.7,91.1,7.7,144.9,34.5c52.6,26.2,157.3-66.3,218.6-26.5
			C803,190.1,572,234.7,547.1,291.7c-24.9,57.1,165.3-35.1,152.7,100.5c-27.6,302.1-174.2,19.9-248.3,18
			c-74.1-1.9-54.3,211.7-313.9,65c-142.3-80.7,14.8-47.6,103.4-81c19.6-7.4,35.9-18,44.9-33.9C303.7,328.8,198.8,315.4,182.8,225z"
			/>
		<path fill="none" stroke="#2B316A" stroke-width="1.0968" stroke-miterlimit="10" d="M174.9,222.5
			c-29.2-160.7,223.4,87.2,149.9-119.8c-33.8-95.1,94.3,8,150,35.9c54.4,27.2,162.9-68.6,226.4-27.5
			C816.8,185.9,577.7,232,551.9,291C526,350,722.9,254.2,710,394.7c-28.4,313.1-180.1,21.1-256.8,18.9
			c-76.7-2.2-56,219.1-324.9,67.3c-147.4-83.4,15-49,106.9-83.3c20.4-7.6,37.2-18.6,46.6-35C300.3,329.7,191.8,316.1,174.9,222.5z"
			/>
		<path fill="none" stroke="#292C67" stroke-width="1.0645" stroke-miterlimit="10" d="M167.1,220C136.6,53.8,398,310,321.7,95.6
			c-35.1-98.5,97.5,8.4,155.1,37.3C533.1,161.2,645.4,62,711,104.4c119.5,77.2-127.6,124.9-154.4,185.8
			c-26.8,60.9,176.8-38.4,163.5,106.9c-29.2,324.1-186.1,22.2-265.3,19.7c-79.2-2.6-57.6,226.5-335.9,69.5
			c-152.4-86.1,15.3-50.4,110.5-85.7c21.1-7.8,38.6-19.2,48.3-36.1C297,330.7,184.7,316.7,167.1,220z"/>
		<path fill="none" stroke="#282764" stroke-width="1.0323" stroke-miterlimit="10" d="M159.2,217.5
			c-31.8-171.7,238.5,92.8,159.4-129c-36.3-101.9,100.7,8.8,160.2,38.8c58.1,29.3,174.2-73.2,242-29.5
			c123.4,79.6-131.6,128.8-159.4,191.7c-27.8,62.8,182.5-40,168.9,110.1c-30.1,335.1-192.1,23.4-273.8,20.5
			c-81.7-2.9-59.3,234-347,71.8c-157.4-88.8,15.6-51.7,114-88.1c21.8-8.1,39.9-19.7,50-37.1C293.7,331.7,177.7,317.4,159.2,217.5z"
			/>
		<path fill="none" stroke="#262262" stroke-miterlimit="10" d="M480.9,121.6c60,30.4,179.8-75.6,249.8-30.5
			C858,173.2,595,224,566.2,288.7c-28.8,64.7,188.2-41.7,174.4,113.2c-30.9,346.1-198,24.6-282.3,21.3s-60.9,241.4-358,74
			c-198.5-111.8,111.6-29.7,169.2-128.7c20.8-35.8-98.8-50.5-118.1-153.6C118.3,37.8,397.5,310.6,315.5,81.4
			C277.9-23.9,419.5,90.6,480.9,121.6z"/>
	</g>
	<g>
		<defs>
			<rect id="SVGID_40_" width="800" height="600"/>
		</defs>
		<clipPath id="SVGID_1_">
			<use xlink:href="#SVGID_40_"  overflow="visible"/>
		</clipPath>
		<g clip-path="url(#SVGID_1_)">
			
				<linearGradient id="SVGID_3_" gradientUnits="userSpaceOnUse" x1="99.0314" y1="-179.2674" x2="255.2746" y2="-296.2299" gradientTransform="matrix(0.7071 0.7071 -0.7071 0.7071 95.4352 256.7018)">
				<stop  offset="0" style="stop-color:#1C75BC"/>
				<stop  offset="1" style="stop-color:#262262;stop-opacity:0"/>
			</linearGradient>
			<path fill="url(#SVGID_3_)" d="M496.7,100.3L275,322c-1.5,1.5-1.5,3.8,0,5.3l0,0c1.5,1.5,3.8,1.5,5.3,0L502,105.6
				c1.5-1.5,1.5-3.8,0-5.3v0C500.6,98.8,498.2,98.8,496.7,100.3z"/>
			
				<linearGradient id="SVGID_4_" gradientUnits="userSpaceOnUse" x1="404.4583" y1="-278.7645" x2="509.0361" y2="-357.0507" gradientTransform="matrix(0.7071 0.7071 -0.7071 0.7071 95.4352 256.7018)">
				<stop  offset="0" style="stop-color:#1C75BC"/>
				<stop  offset="1" style="stop-color:#262262;stop-opacity:0"/>
			</linearGradient>
			<path fill="url(#SVGID_4_)" d="M701.7,282.3L570.4,413.6c-3.8,3.8-3.8,10,0,13.8v0c3.8,3.8,10,3.8,13.8,0l131.3-131.3
				c3.8-3.8,3.8-10,0-13.8h0C711.7,278.5,705.5,278.5,701.7,282.3z"/>
			
				<linearGradient id="SVGID_5_" gradientUnits="userSpaceOnUse" x1="286.2273" y1="-441.0807" x2="390.8051" y2="-519.3669" gradientTransform="matrix(0.7071 0.7071 -0.7071 0.7071 95.4352 256.7018)">
				<stop  offset="0" style="stop-color:#1C75BC"/>
				<stop  offset="1" style="stop-color:#262262;stop-opacity:0"/>
			</linearGradient>
			<path opacity="0.5" fill="url(#SVGID_5_)" d="M732.9,83.9L601.6,215.2c-3.8,3.8-3.8,10,0,13.8v0c3.8,3.8,10,3.8,13.8,0
				L746.7,97.7c3.8-3.8,3.8-10,0-13.8l0,0C742.9,80.1,736.7,80.1,732.9,83.9z"/>
			
				<linearGradient id="SVGID_6_" gradientUnits="userSpaceOnUse" x1="395.7207" y1="32.1103" x2="500.2985" y2="-46.1759" gradientTransform="matrix(0.7071 0.7071 -0.7071 0.7071 95.4352 256.7018)">
				<stop  offset="0" style="stop-color:#1C75BC"/>
				<stop  offset="1" style="stop-color:#262262;stop-opacity:0"/>
			</linearGradient>
			<path opacity="0.5" fill="url(#SVGID_6_)" d="M475.7,495.9L344.4,627.2c-3.8,3.8-3.8,10,0,13.8h0c3.8,3.8,10,3.8,13.8,0
				l131.3-131.3c3.8-3.8,3.8-10,0-13.8v0C485.7,492.1,479.5,492.1,475.7,495.9z"/>
			
				<linearGradient id="SVGID_7_" gradientUnits="userSpaceOnUse" x1="270.3526" y1="-24.206" x2="374.9304" y2="-102.4922" gradientTransform="matrix(0.7071 0.7071 -0.7071 0.7071 95.4352 256.7018)">
				<stop  offset="0" style="stop-color:#1C75BC"/>
				<stop  offset="1" style="stop-color:#262262;stop-opacity:0"/>
			</linearGradient>
			<path fill="url(#SVGID_7_)" d="M426.9,367.5L295.6,498.7c-3.8,3.8-3.8,10,0,13.8h0c3.8,3.8,10,3.8,13.8,0l131.3-131.3
				c3.8-3.8,3.8-10,0-13.8l0,0C436.9,363.6,430.7,363.6,426.9,367.5z"/>
			
				<linearGradient id="SVGID_8_" gradientUnits="userSpaceOnUse" x1="126.0306" y1="-303.9386" x2="230.6084" y2="-382.2248" gradientTransform="matrix(0.7071 0.7071 -0.7071 0.7071 95.4352 256.7018)">
				<stop  offset="0" style="stop-color:#1C75BC"/>
				<stop  offset="1" style="stop-color:#262262;stop-opacity:0"/>
			</linearGradient>
			<path fill="url(#SVGID_8_)" d="M522.6,67.6L391.4,198.9c-3.8,3.8-3.8,10,0,13.8v0c3.8,3.8,10,3.8,13.8,0L536.5,81.4
				c3.8-3.8,3.8-10,0-13.8v0C532.6,63.8,526.4,63.8,522.6,67.6z"/>
			
				<linearGradient id="SVGID_9_" gradientUnits="userSpaceOnUse" x1="-31.7439" y1="-167.9106" x2="72.8339" y2="-246.1968" gradientTransform="matrix(0.7071 0.7071 -0.7071 0.7071 95.4352 256.7018)">
				<stop  offset="0" style="stop-color:#1C75BC"/>
				<stop  offset="1" style="stop-color:#262262;stop-opacity:0"/>
			</linearGradient>
			<path fill="url(#SVGID_9_)" d="M314.9,52.2L183.6,183.5c-3.8,3.8-3.8,10,0,13.8l0,0c3.8,3.8,10,3.8,13.8,0L328.7,66.1
				c3.8-3.8,3.8-10,0-13.8v0C324.9,48.4,318.7,48.4,314.9,52.2z"/>
			
				<linearGradient id="SVGID_10_" gradientUnits="userSpaceOnUse" x1="31.0786" y1="39.1617" x2="135.6564" y2="-39.1245" gradientTransform="matrix(0.7071 0.7071 -0.7071 0.7071 95.4352 256.7018)">
				<stop  offset="0" style="stop-color:#1C75BC"/>
				<stop  offset="1" style="stop-color:#262262;stop-opacity:0"/>
			</linearGradient>
			<path opacity="0.5" fill="url(#SVGID_10_)" d="M212.9,243.1L81.6,374.4c-3.8,3.8-3.8,10,0,13.8h0c3.8,3.8,10,3.8,13.8,0
				l131.3-131.3c3.8-3.8,3.8-10,0-13.8l0,0C222.9,239.3,216.7,239.3,212.9,243.1z"/>
			
				<linearGradient id="SVGID_11_" gradientUnits="userSpaceOnUse" x1="103.2229" y1="111.306" x2="207.8007" y2="33.0198" gradientTransform="matrix(0.7071 0.7071 -0.7071 0.7071 95.4352 256.7018)">
				<stop  offset="0" style="stop-color:#1C75BC"/>
				<stop  offset="1" style="stop-color:#262262;stop-opacity:0"/>
			</linearGradient>
			<path fill="url(#SVGID_11_)" d="M212.9,345.1L81.6,476.4c-3.8,3.8-3.8,10,0,13.8h0c3.8,3.8,10,3.8,13.8,0l131.3-131.3
				c3.8-3.8,3.8-10,0-13.8l0,0C222.9,341.3,216.7,341.3,212.9,345.1z"/>
			
				<linearGradient id="SVGID_12_" gradientUnits="userSpaceOnUse" x1="341.2759" y1="-115.4037" x2="497.519" y2="-232.3663" gradientTransform="matrix(0.7071 0.7071 -0.7071 0.7071 95.4352 256.7018)">
				<stop  offset="0" style="stop-color:#1C75BC"/>
				<stop  offset="1" style="stop-color:#262262;stop-opacity:0"/>
			</linearGradient>
			<path fill="url(#SVGID_12_)" d="M622.8,316.7L401.1,538.5c-1.5,1.5-1.5,3.8,0,5.3v0c1.5,1.5,3.8,1.5,5.3,0L628.2,322
				c1.5-1.5,1.5-3.8,0-5.3l0,0C626.7,315.3,624.3,315.3,622.8,316.7z"/>
			
				<linearGradient id="SVGID_13_" gradientUnits="userSpaceOnUse" x1="238.4387" y1="-399.7647" x2="394.6818" y2="-516.7272" gradientTransform="matrix(0.7071 0.7071 -0.7071 0.7071 95.4352 256.7018)">
				<stop  offset="0" style="stop-color:#1C75BC"/>
				<stop  offset="1" style="stop-color:#262262;stop-opacity:0"/>
			</linearGradient>
			<path fill="url(#SVGID_13_)" d="M751.2,42.9L529.5,264.7c-1.5,1.5-1.5,3.8,0,5.3h0c1.5,1.5,3.8,1.5,5.3,0L756.5,48.2
				c1.5-1.5,1.5-3.8,0-5.3v0C755,41.5,752.7,41.5,751.2,42.9z"/>
			
				<linearGradient id="SVGID_14_" gradientUnits="userSpaceOnUse" x1="63.406" y1="-269.5333" x2="219.6492" y2="-386.4958" gradientTransform="matrix(0.7071 0.7071 -0.7071 0.7071 95.4352 256.7018)">
				<stop  offset="0" style="stop-color:#1C75BC"/>
				<stop  offset="1" style="stop-color:#262262;stop-opacity:0"/>
			</linearGradient>
			<path opacity="0.5" fill="url(#SVGID_14_)" d="M535.4,11.3L313.6,233c-1.5,1.5-1.5,3.8,0,5.3v0c1.5,1.5,3.8,1.5,5.3,0L540.7,16.6
				c1.5-1.5,1.5-3.8,0-5.3l0,0C539.2,9.8,536.8,9.8,535.4,11.3z"/>
			
				<linearGradient id="SVGID_15_" gradientUnits="userSpaceOnUse" x1="404.8755" y1="-252.273" x2="561.1187" y2="-369.2355" gradientTransform="matrix(0.7071 0.7071 -0.7071 0.7071 95.4352 256.7018)">
				<stop  offset="0" style="stop-color:#1C75BC"/>
				<stop  offset="1" style="stop-color:#262262;stop-opacity:0"/>
			</linearGradient>
			<path opacity="0.5" fill="url(#SVGID_15_)" d="M764.6,264.9L542.9,486.7c-1.5,1.5-1.5,3.8,0,5.3l0,0c1.5,1.5,3.8,1.5,5.3,0
				l221.8-221.8c1.5-1.5,1.5-3.8,0-5.3v0C768.4,263.5,766.1,263.5,764.6,264.9z"/>
			
				<linearGradient id="SVGID_16_" gradientUnits="userSpaceOnUse" x1="-82.8987" y1="-52.647" x2="73.3445" y2="-169.6096" gradientTransform="matrix(0.7071 0.7071 -0.7071 0.7071 95.4352 256.7018)">
				<stop  offset="0" style="stop-color:#1C75BC"/>
				<stop  offset="1" style="stop-color:#262262;stop-opacity:0"/>
			</linearGradient>
			<path fill="url(#SVGID_16_)" d="M278.5,61.2L56.8,282.9c-1.5,1.5-1.5,3.8,0,5.3h0c1.5,1.5,3.8,1.5,5.3,0L283.8,66.5
				c1.5-1.5,1.5-3.8,0-5.3v0C282.4,59.7,280,59.7,278.5,61.2z"/>
			
				<linearGradient id="SVGID_17_" gradientUnits="userSpaceOnUse" x1="-115.1456" y1="-231.3398" x2="41.0976" y2="-348.3023" gradientTransform="matrix(0.7071 0.7071 -0.7071 0.7071 95.4352 256.7018)">
				<stop  offset="0" style="stop-color:#1C75BC"/>
				<stop  offset="1" style="stop-color:#262262;stop-opacity:0"/>
			</linearGradient>
			<path fill="url(#SVGID_17_)" d="M382.1-88L160.3,133.8c-1.5,1.5-1.5,3.8,0,5.3v0c1.5,1.5,3.8,1.5,5.3,0L387.4-82.7
				c1.5-1.5,1.5-3.8,0-5.3v0C385.9-89.5,383.6-89.5,382.1-88z"/>
			
				<linearGradient id="SVGID_18_" gradientUnits="userSpaceOnUse" x1="31.0328" y1="101.99" x2="187.2759" y2="-14.9725" gradientTransform="matrix(0.7071 0.7071 -0.7071 0.7071 95.4352 256.7018)">
				<stop  offset="0" style="stop-color:#1C75BC"/>
				<stop  offset="1" style="stop-color:#262262;stop-opacity:0"/>
			</linearGradient>
			<path fill="url(#SVGID_18_)" d="M249.8,251.1L28,472.8c-1.5,1.5-1.5,3.8,0,5.3h0c1.5,1.5,3.8,1.5,5.3,0l221.8-221.8
				c1.5-1.5,1.5-3.8,0-5.3l0,0C253.6,249.6,251.2,249.6,249.8,251.1z"/>
		</g>
	</g>
</g>
</svg>
